<svg width="20" height="20" viewBox="0 0 20 20" fill="none" xmlns="http://www.w3.org/2000/svg">
<path d="M10.8465 5.73071C10.9541 5.31392 11.5459 5.31392 11.6535 5.73071L12.4702 8.89703C12.5081 9.04387 12.6228 9.15854 12.7696 9.19642L15.936 10.0132C16.3527 10.1207 16.3527 10.7126 15.936 10.8201L12.7696 11.6369C12.6228 11.6748 12.5081 11.7894 12.4702 11.9363L11.6535 15.1026C11.5459 15.5194 10.9541 15.5194 10.8465 15.1026L10.0298 11.9363C9.99188 11.7894 9.87722 11.6748 9.73038 11.6369L6.56405 10.8201C6.14726 10.7126 6.14726 10.1207 6.56405 10.0132L9.73038 9.19642C9.87722 9.15854 9.99188 9.04387 10.0298 8.89703L10.8465 5.73071Z" stroke="white" stroke-width="1.2"/>
<path d="M5.01451 3.23068C5.12202 2.81389 5.71391 2.81389 5.82143 3.23068L6.12556 4.40966C6.16343 4.55649 6.2781 4.67116 6.42494 4.70904L7.60392 5.01317C8.02071 5.12068 8.02071 5.71257 7.60392 5.82009L6.42494 6.12421C6.2781 6.16209 6.16343 6.27676 6.12556 6.4236L5.82143 7.60258C5.71391 8.01936 5.12202 8.01936 5.01451 7.60258L4.71038 6.4236C4.6725 6.27676 4.55784 6.16209 4.411 6.12421L3.23202 5.82009C2.81523 5.71257 2.81523 5.12068 3.23202 5.01317L4.411 4.70904C4.55784 4.67116 4.6725 4.5565 4.71038 4.40966L5.01451 3.23068Z" fill="white"/>
</svg>
